<svg xmlns="http://www.w3.org/2000/svg" viewBox="0 0 585.74 195.63"><defs><style>.cls-1{fill:#fff;}.cls-2{fill:none;}</style></defs><g id="Ebene_2" data-name="Ebene 2"><g id="Ebene_1-2" data-name="Ebene 1"><path class="cls-1" d="M261.9,133l-5.13-14.25H232.69L227.8,133H213.94l28-71.23h5.46L275.66,133ZM244.68,83.21l-8.44,26h16.88Z"/><path class="cls-1" d="M475.27,73.76V90.21h23.22v10.6H475.27v21.06h31.85V133H462.8V62.68h44.85V73.76Z"/><path class="cls-1" d="M553.37,73.76V90.21h23.21v10.6H553.37v21.06h31.84V133H540.9V62.68h44.84V73.76Z"/><path class="cls-1" d="M305.26,96.2q0,15.69,12.95,23.79l-20.72,22.4h15.25l17.08-18.85H339v18.85H351.5V72.17c-11.1-.56-17.57-.82-19.43-.82Q305.27,71.35,305.26,96.2ZM339,83.06v30h-6.77q-6.76,0-10.4-4.43T318.21,96q0-7,3.36-10.15t11.36-3.19A31.12,31.12,0,0,1,339,83.06Zm86.48,1.36a21.73,21.73,0,0,0-9.8-8.13q9.17-4.17,9.16-12.66a13.07,13.07,0,0,0-6.12-11.58q-6.11-4-17.19-4-6.53,0-19.91.72v74.75h21.49q11.33,0,18.64-6.69c4.87-4.46,7.31-12.09,7.31-18.81C429.09,93,427.59,87.38,425.51,84.42ZM394.12,58.64c3.55-.16,5.94-.24,7.15-.24q11.13,0,11.13,6.43a6.25,6.25,0,0,1-2.23,4.92,8.26,8.26,0,0,1-4.48,2.18c-1.51.16-5.36.24-11.57.24Zm18.42,51.46c-2.36,2.16-6,2.94-10.79,2.94h-7.63V82.19q2.31-.09,3.51-.09h2.78a18.67,18.67,0,0,1,12,4.31c2.46,2,3.69,6.49,3.69,11C416.09,102.36,414.91,108,412.54,110.1Z"/><circle class="cls-2" cx="97.82" cy="97.82" r="97.82"/><path class="cls-1" d="M97.82,52.24a45.58,45.58,0,1,0,45.57,45.58A45.64,45.64,0,0,0,97.82,52.24Z"/><path class="cls-1" d="M95.91,9.56c-31.15,3.66-77.52,47.35-85.4,88.26-8.81,45.72,19.17,81.68,90.38,82.93,65.11,1.15,78.9-28.8,79.39-66.56C181.14,48.48,147.54,3.5,95.91,9.56Zm1.91,145.83a57.58,57.58,0,1,1,57.57-57.57A57.64,57.64,0,0,1,97.82,155.39Z"/></g></g></svg>