<?xml version="1.0" encoding="utf-8"?>
<!-- Generator: Adobe Illustrator 26.2.1, SVG Export Plug-In . SVG Version: 6.00 Build 0)  -->
<svg version="1.1"
	 id="svg15" xmlns:cc="http://creativecommons.org/ns#" xmlns:dc="http://purl.org/dc/elements/1.1/" xmlns:inkscape="http://www.inkscape.org/namespaces/inkscape" xmlns:rdf="http://www.w3.org/1999/02/22-rdf-syntax-ns#" xmlns:sodipodi="http://sodipodi.sourceforge.net/DTD/sodipodi-0.dtd" xmlns:svg="http://www.w3.org/2000/svg"
	 xmlns="http://www.w3.org/2000/svg" xmlns:xlink="http://www.w3.org/1999/xlink" x="0px" y="0px" viewBox="0 0 64 64"
	 style="enable-background:new 0 0 64 64;" xml:space="preserve">
<style type="text/css">
	.st0{fill:#FFFFFF;}
</style>
<sodipodi:namedview  bordercolor="#666666" borderopacity="1" gridtolerance="10" guidetolerance="10" id="namedview17" inkscape:current-layer="svg15" inkscape:cx="44" inkscape:cy="17.5" inkscape:pageopacity="0" inkscape:pageshadow="2" inkscape:window-height="1001" inkscape:window-maximized="1" inkscape:window-width="1920" inkscape:window-x="-9" inkscape:window-y="-9" inkscape:zoom="3.8522727" objecttolerance="10" pagecolor="#ffffff" showgrid="false">
	</sodipodi:namedview>
<desc  id="desc4">Created with Sketch.</desc>
<g id="g856" transform="matrix(1.9656019,0,0,1.9656019,-2.8167172e-7,-51.10565)">
	<g>
		<path class="st0" d="M23.7,37.8h-1.5v5.6h1.5c1.5,0,2.8-1.2,2.8-2.8S25.3,37.8,23.7,37.8z"/>
		<path class="st0" d="M16.3,26C7.3,26,0,33.3,0,42.3s7.3,16.3,16.3,16.3s16.3-7.3,16.3-16.3S25.3,26,16.3,26z M23.9,46.4h-1.6V48
			c0,1.4-1.2,2.6-2.6,2.6H7.4c-1.4,0-2.6-1.2-2.6-2.6v-12c0-0.7,0.6-1.3,1.3-1.3h16.1h1.6c3.1,0,5.6,2.5,5.6,5.6v0.3
			C29.5,43.8,27,46.4,23.9,46.4z"/>
	</g>
	<g id="Group" transform="translate(4.84,34.8)">
		<path id="Path-2" inkscape:connector-curvature="0" class="st0" d="M8.4,5.3c0.4-1.2,1.3-1.8,2.8-1.8c2.2,0,3.1,2.8,1.9,4.6
			c-0.8,1.2-2.4,2.8-4.7,4.6c-2.4-1.9-4-3.4-4.7-4.6C2.4,6.3,3.3,3.5,5.5,3.5C7,3.5,8,4.1,8.4,5.3z"/>
	</g>
</g>
</svg>
