<?xml version="1.0" encoding="UTF-8" standalone="no"?><!-- Generator: Gravit.io --><svg xmlns="http://www.w3.org/2000/svg" xmlns:xlink="http://www.w3.org/1999/xlink" style="isolation:isolate" viewBox="0 0 240 240" width="240pt" height="240pt"><defs><clipPath id="_clipPath_nVkd0IXXExFcu6KMGvv3okZvTrduY7nm"><rect width="240" height="240"/></clipPath></defs><g clip-path="url(#_clipPath_nVkd0IXXExFcu6KMGvv3okZvTrduY7nm)"><path d=" M 0 120 C 0 53.77 53.77 0 120 0 C 186.23 0 240 53.77 240 120 C 240 186.23 186.23 240 120 240 C 53.77 240 0 186.23 0 120 Z  M 62.072 80 L 178.142 80 C 178.106 80.034 178.07 80.069 178.035 80.104 L 120.106 138.034 L 62.075 80.003 C 62.074 80.002 62.073 80.001 62.072 80 L 62.072 80 Z  M 185 87.281 L 185 154.8 C 185 157.67 182.67 160 179.8 160 L 60.2 160 C 57.33 160 55 157.67 55 154.8 L 55 87.072 C 55.001 87.073 55.002 87.074 55.003 87.075 L 116.575 148.647 C 118.527 150.598 121.695 150.598 123.647 148.647 L 123.647 148.647 C 123.719 148.575 123.789 148.501 123.856 148.425 L 185 87.281 L 185 87.281 Z " fill-rule="evenodd" fill="rgb(255,255,255)"/></g></svg>