<?xml version="1.0" encoding="UTF-8" standalone="no"?>
<!-- Generator: Gravit.io -->
<svg xmlns="http://www.w3.org/2000/svg" xmlns:xlink="http://www.w3.org/1999/xlink" style="isolation:isolate" viewBox="0 0 74 74" width="74pt" height="74pt"><defs><clipPath id="_clipPath_pcyd41Wsv27kDOE40aOW1HDEDAgIbb6A"><rect width="74" height="74"/></clipPath></defs><g clip-path="url(#_clipPath_pcyd41Wsv27kDOE40aOW1HDEDAgIbb6A)"><path d=" M 0.041 37.05 C 0.041 16.629 16.621 0.05 37.041 0.05 C 57.462 0.05 74.041 16.629 74.041 37.05 C 74.041 57.471 57.462 74.05 37.041 74.05 C 16.621 74.05 0.041 57.471 0.041 37.05 Z  M 51.944 41.984 L 46.869 41.984 L 46.869 29.75 C 46.869 27.175 45.778 25.861 43.56 25.861 C 41.122 25.861 39.901 27.415 39.901 30.484 L 39.901 37.181 L 34.856 37.181 L 34.856 30.484 C 34.856 27.415 33.632 25.861 31.194 25.861 C 28.989 25.861 27.887 27.175 27.885 29.75 L 27.885 41.984 L 22.814 41.984 L 22.814 29.379 C 22.814 26.803 23.482 24.757 24.818 23.241 C 26.197 21.727 28.005 20.951 30.249 20.951 C 32.847 20.951 34.81 21.933 36.119 23.897 L 37.381 25.984 L 38.646 23.897 C 39.955 21.933 41.918 20.951 44.511 20.951 C 46.753 20.951 48.561 21.727 49.944 23.241 C 51.281 24.756 51.949 26.802 51.949 29.379 L 51.944 41.984 L 51.944 41.984 Z  M 59.373 23.893 C 58.679 18.819 54.186 14.821 48.86 14.046 C 47.962 13.915 44.557 13.438 36.67 13.438 L 36.611 13.438 C 28.723 13.438 27.03 13.915 26.131 14.046 C 20.954 14.799 16.225 18.392 15.078 23.526 C 14.526 26.054 14.467 28.858 14.57 31.429 C 14.716 35.116 14.744 38.797 15.084 42.469 C 15.32 44.909 15.73 47.329 16.312 49.711 C 17.403 54.111 21.817 57.773 26.142 59.266 C 30.773 60.824 35.753 61.083 40.524 60.013 C 41.049 59.893 41.568 59.754 42.082 59.595 C 43.24 59.232 44.599 58.826 45.597 58.114 C 45.611 58.104 45.622 58.091 45.63 58.076 C 45.638 58.061 45.643 58.045 45.643 58.028 L 45.643 54.47 C 45.643 54.454 45.639 54.438 45.632 54.424 C 45.625 54.41 45.615 54.398 45.602 54.388 C 45.59 54.379 45.575 54.372 45.56 54.368 C 45.544 54.365 45.528 54.365 45.512 54.369 C 42.455 55.087 39.323 55.447 36.18 55.442 C 30.771 55.442 29.316 52.916 28.899 51.864 C 28.564 50.955 28.352 50.007 28.267 49.044 C 28.266 49.027 28.269 49.011 28.276 48.996 C 28.282 48.982 28.292 48.969 28.305 48.958 C 28.318 48.948 28.333 48.941 28.349 48.938 C 28.365 48.934 28.382 48.934 28.398 48.938 C 31.404 49.652 34.485 50.012 37.578 50.012 C 38.321 50.012 39.063 50.012 39.807 49.992 C 42.917 49.906 46.195 49.75 49.255 49.162 C 49.331 49.147 49.408 49.134 49.473 49.114 C 54.3 48.202 58.893 45.339 59.36 38.089 C 59.377 37.803 59.421 35.099 59.421 34.803 C 59.423 33.796 59.75 27.662 59.373 23.893 L 59.373 23.893 Z " fill-rule="evenodd" fill="rgb(255,255,255)"/></g></svg>