<?xml version="1.0" encoding="UTF-8" standalone="no"?><!-- Generator: Gravit.io --><svg xmlns="http://www.w3.org/2000/svg" xmlns:xlink="http://www.w3.org/1999/xlink" style="isolation:isolate" viewBox="0 0 341.8 341.8" width="341.8pt" height="341.8pt"><defs><clipPath id="_clipPath_OfmfJ3RZmILBBmaoyzjlac6DRsiXTZW0"><rect width="341.8" height="341.8"/></clipPath></defs><g clip-path="url(#_clipPath_OfmfJ3RZmILBBmaoyzjlac6DRsiXTZW0)"><path d=" M 0 170.9 C 0 76.578 76.578 0 170.9 0 C 265.222 0 341.8 76.578 341.8 170.9 C 341.8 265.222 265.222 341.8 170.9 341.8 C 76.578 341.8 0 265.222 0 170.9 Z  M 113.933 188.69 C 113.933 178.895 121.929 170.9 131.723 170.9 C 141.517 170.9 149.513 178.895 149.513 188.69 C 149.513 198.484 141.517 206.479 131.723 206.479 C 121.929 206.479 113.933 198.484 113.933 188.69 L 113.933 188.69 Z  M 213.275 235.662 C 201.082 247.855 177.896 248.655 171.1 248.655 C 164.304 248.655 140.918 247.655 128.925 235.662 C 127.126 233.863 127.126 230.865 128.925 229.066 C 130.724 227.267 133.722 227.267 135.521 229.066 C 143.116 236.662 159.507 239.46 171.3 239.46 C 183.093 239.46 199.283 236.662 207.079 229.066 C 208.878 227.267 211.876 227.267 213.675 229.066 C 215.074 231.065 215.074 233.863 213.275 235.662 L 213.275 235.662 Z  M 210.077 206.479 C 200.283 206.479 192.287 198.484 192.287 188.69 C 192.287 178.895 200.283 170.9 210.077 170.9 C 219.871 170.9 227.867 178.895 227.867 188.69 C 227.867 198.484 219.871 206.479 210.077 206.479 L 210.077 206.479 Z  M 284.833 170.9 C 284.833 157.108 273.64 145.915 259.848 145.915 C 253.052 145.915 247.055 148.513 242.658 152.911 C 225.668 140.718 202.082 132.722 176.097 131.723 L 187.49 78.354 L 224.469 86.15 C 224.868 95.544 232.664 103.14 242.258 103.14 C 252.053 103.14 260.048 95.144 260.048 85.35 C 260.048 75.556 252.053 67.56 242.258 67.56 C 235.262 67.56 229.266 71.558 226.467 77.555 L 185.092 68.76 C 183.892 68.56 182.693 68.76 181.694 69.359 C 180.694 69.959 180.095 70.958 179.695 72.158 L 167.102 131.723 C 140.518 132.522 116.732 140.318 99.542 152.911 C 95.144 148.713 88.948 145.915 82.352 145.915 C 68.56 145.915 57.366 157.108 57.366 170.9 C 57.366 181.094 63.363 189.689 72.158 193.687 C 71.758 196.085 71.558 198.684 71.558 201.282 C 71.558 239.66 116.132 270.642 171.3 270.642 C 226.467 270.642 271.041 239.66 271.041 201.282 C 271.041 198.684 270.842 196.285 270.442 193.887 C 278.637 189.889 284.833 181.094 284.833 170.9 L 284.833 170.9 Z " fill-rule="evenodd" fill="rgb(255,255,255)"/></g></svg>