<?xml version="1.0" encoding="UTF-8" standalone="no"?><!-- Generator: Gravit.io --><svg xmlns="http://www.w3.org/2000/svg" xmlns:xlink="http://www.w3.org/1999/xlink" style="isolation:isolate" viewBox="0 0 60 60" width="60pt" height="60pt"><defs><clipPath id="_clipPath_rHbrgTSBITDTnfFqzGDYKecpwBRkTE9A"><rect width="60" height="60"/></clipPath></defs><g clip-path="url(#_clipPath_rHbrgTSBITDTnfFqzGDYKecpwBRkTE9A)"><rect width="60" height="60" style="fill:rgb(0,0,0)" fill-opacity="0"/><path d=" M 30 25.767 L 42.664 38.42 C 43.438 39.193 44.695 39.193 45.47 38.42 L 45.47 38.42 C 46.243 37.647 46.243 36.39 45.47 35.616 L 31.425 21.582 C 31.123 21.281 30.749 21.097 30.36 21.026 C 30.121 20.99 29.879 20.993 29.64 21.026 C 29.251 21.097 28.877 21.281 28.575 21.582 L 14.531 35.616 C 13.756 36.39 13.756 37.647 14.531 38.42 L 14.531 38.42 C 15.306 39.193 16.563 39.193 17.337 38.42 L 30 25.767 Z " fill-rule="evenodd" fill="rgb(255,255,255)"/></g></svg>