<svg xmlns="http://www.w3.org/2000/svg" viewBox="0 0 371.81 94.39"><defs><style>.cls-1{fill:#fff;}</style></defs><g id="Ebene_2" data-name="Ebene 2"><g id="Ebene_1-2" data-name="Ebene 1"><path class="cls-1" d="M48,85,42.83,70.71H18.75L13.86,85H0L28,13.73h5.47L61.73,85ZM30.74,35.21,22.3,61.16H39.19Z"/><path class="cls-1" d="M261.34,25.77V42.22h23.21v10.6H261.34V73.87h31.84V85H248.87V14.69h44.84V25.77Z"/><path class="cls-1" d="M339.43,25.77V42.22h23.22v10.6H339.43V73.87h31.85V85H327V14.69h44.85V25.77Z"/><path class="cls-1" d="M91.32,48.2q0,15.69,13,23.79L83.55,94.39H98.81l17.07-18.85h9.21V94.39h12.47V24.17c-11.09-.56-17.57-.81-19.42-.81Q91.32,23.36,91.32,48.2Zm33.77-13.14V65h-6.76q-6.76,0-10.41-4.44T104.27,48q0-7,3.36-10.14T119,34.68A31.31,31.31,0,0,1,125.09,35.06Zm86.49,1.37a21.64,21.64,0,0,0-9.81-8.13q9.16-4.17,9.16-12.66a13.08,13.08,0,0,0-6.11-11.59q-6.12-4-17.2-4-6.52,0-19.9.72V75.48h21.49q11.31,0,18.63-6.69c4.88-4.46,7.31-12.1,7.31-18.81C215.15,45,213.66,39.39,211.58,36.43ZM180.19,10.65q5.33-.24,7.15-.24,11.11,0,11.12,6.42a6.22,6.22,0,0,1-2.23,4.92,8.16,8.16,0,0,1-4.48,2.18c-1.5.16-5.36.24-11.56.24Zm18.42,51.46c-2.37,2.16-6,2.93-10.79,2.93h-7.63V34.2c1.53-.07,2.7-.1,3.5-.1h2.78a18.67,18.67,0,0,1,12,4.31c2.47,2,3.7,6.49,3.7,11C202.16,54.36,201,60,198.61,62.11Z"/></g></g></svg>