<svg xmlns="http://www.w3.org/2000/svg" viewBox="0 0 502.18 301.53"><defs><style>.cls-1{fill:#fff;}</style></defs><g id="Ebene_2" data-name="Ebene 2"><g id="Ebene_1-2" data-name="Ebene 1"><path class="cls-1" d="M56.07,58.35a30.27,30.27,0,0,0,10.5-9.72q4.71-7.14,4.71-17.31,0-15.24-10.48-22.63T32.31,1.31H0V120.7H37a57.8,57.8,0,0,0,14.69-1.88,38.34,38.34,0,0,0,12.91-6,30,30,0,0,0,9.09-10.58,33.24,33.24,0,0,0,3.41-15.66A26.35,26.35,0,0,0,71,69.13,39,39,0,0,0,56.07,58.35ZM19,19.68H33.12q8.61,0,13.64,3.85t5,11.73a18.47,18.47,0,0,1-4,11.89q-4,5-12.42,5H19Zm35.72,76.1a17.7,17.7,0,0,1-7.8,5.41A31.16,31.16,0,0,1,36,103H19V70.52H34.75A39.36,39.36,0,0,1,45.62,72a19.13,19.13,0,0,1,8.61,4.92q3.41,3.43,3.41,9.67A14.19,14.19,0,0,1,54.72,95.78ZM202,120.7H124.69V1.31h19v101H202ZM342.58,18.2a62.76,62.76,0,0,0-19.4-13.36,59.11,59.11,0,0,0-46.85,0A61,61,0,0,0,257.18,18.2a63.72,63.72,0,0,0-13,19.6,59.07,59.07,0,0,0-4.71,23.37,60.6,60.6,0,0,0,36.85,56.17,60.74,60.74,0,0,0,46.76,0,62.22,62.22,0,0,0,19.41-13.12,61,61,0,0,0,13.23-19.43,59.33,59.33,0,0,0,4.71-23.62,59.07,59.07,0,0,0-4.71-23.37A62.27,62.27,0,0,0,342.58,18.2Zm-4.79,59.54a44.13,44.13,0,0,1-8.61,13.53,38.89,38.89,0,0,1-28.82,12.38,40,40,0,0,1-16.15-3.28A41.31,41.31,0,0,1,271,91.27a42,42,0,0,1-8.85-13.53A43.64,43.64,0,0,1,259,61a44.25,44.25,0,0,1,3.09-16.48,41.33,41.33,0,0,1,21.75-22.8,38.74,38.74,0,0,1,16.08-3.36,39.31,39.31,0,0,1,29.06,12.46,46,46,0,0,1,8.77,13.61A42.76,42.76,0,0,1,341,61.17,43.2,43.2,0,0,1,337.79,77.74ZM502.18,60.52v49.2a39.76,39.76,0,0,1-6.9,4.34,60.34,60.34,0,0,1-9.91,3.94,113.86,113.86,0,0,1-11.44,2.87A57.19,57.19,0,0,1,463.05,122a71.37,71.37,0,0,1-25.9-4.43,58.19,58.19,0,0,1-19.56-12.22A53.44,53.44,0,0,1,405.09,87a60.32,60.32,0,0,1-4.39-23.37q0-15.41,4.95-27.3a59.19,59.19,0,0,1,13.32-20A55.12,55.12,0,0,1,438.29,4.1,65.53,65.53,0,0,1,461.42,0a76.53,76.53,0,0,1,19.89,2.46,67.77,67.77,0,0,1,15.83,6.23L490.81,26.4a34.91,34.91,0,0,0-7.87-3.52,99.08,99.08,0,0,0-9.82-2.63,45.05,45.05,0,0,0-9.26-1.06,54.35,54.35,0,0,0-18.18,2.87,36.07,36.07,0,0,0-22.49,22,50.41,50.41,0,0,0-3,18,42.36,42.36,0,0,0,3.24,16.89,39.68,39.68,0,0,0,8.85,13,37.49,37.49,0,0,0,13.56,8.28A51.17,51.17,0,0,0,463.37,103a58.08,58.08,0,0,0,10.72-1A28.87,28.87,0,0,0,483,98.89V79.05H460.78V60.52ZM334.79,191l13.43,13.43-97.13,97.13L154,204.4,167.39,191l83.7,83.7Z"/></g></g></svg>