<?xml version="1.0" encoding="UTF-8" standalone="no"?><!-- Generator: Gravit.io --><svg xmlns="http://www.w3.org/2000/svg" xmlns:xlink="http://www.w3.org/1999/xlink" style="isolation:isolate" viewBox="0 0 180 180" width="180pt" height="180pt"><defs><clipPath id="_clipPath_hbXx7i6DYbBGHnNYiUgFdMnerWzepqv1"><rect width="180" height="180"/></clipPath></defs><g clip-path="url(#_clipPath_hbXx7i6DYbBGHnNYiUgFdMnerWzepqv1)"><clipPath id="_clipPath_5DS1i7595ZDFrJ7POhKjaM3knNZR6PXi"><rect x="0" y="0" width="180" height="180" transform="matrix(1,0,0,1,0,0)" fill="rgb(255,255,255)"/></clipPath><g clip-path="url(#_clipPath_5DS1i7595ZDFrJ7POhKjaM3knNZR6PXi)"><g><path d=" M 97.08 90 L 178.54 8.54 C 179.47 7.6 180 6.33 180 5 C 180 3.67 179.47 2.4 178.54 1.46 C 177.6 0.53 176.33 0 175 0 C 173.67 0 172.4 0.53 171.46 1.46 L 90 82.92 L 8.54 1.46 C 7.6 0.53 6.33 0 5 0 C 3.67 0 2.4 0.53 1.46 1.46 C 0.53 2.4 0 3.67 0 5 C 0 6.33 0.53 7.6 1.46 8.54 L 82.92 90 L 1.46 171.46 C 0.53 172.4 0 173.67 0 175 C 0 176.33 0.53 177.6 1.46 178.54 C 2.4 179.47 3.67 180 5 180 C 6.33 180 7.6 179.47 8.54 178.54 L 90 97.08 L 171.46 178.54 C 172.4 179.47 173.67 180 175 180 C 176.33 180 177.6 179.47 178.54 178.54 C 179.47 177.6 180 176.33 180 175 C 180 173.67 179.47 172.4 178.54 171.46 L 97.08 90 L 97.08 90 Z " fill-rule="evenodd" fill="rgb(255,210,252)"/></g></g></g></svg>