<?xml version="1.0" encoding="UTF-8" standalone="no"?><!-- Generator: Gravit.io --><svg xmlns="http://www.w3.org/2000/svg" xmlns:xlink="http://www.w3.org/1999/xlink" style="isolation:isolate" viewBox="0 0 180 180" width="180pt" height="180pt"><defs><clipPath id="_clipPath_8VFc2sBkq8BODbHwTdtW36vI4RfStiZo"><rect width="180" height="180"/></clipPath></defs><g clip-path="url(#_clipPath_8VFc2sBkq8BODbHwTdtW36vI4RfStiZo)"><path d=" M 0 90 C 0 40.328 40.328 0 90 0 C 139.672 0 180 40.328 180 90 C 180 139.672 139.672 180 90 180 C 40.328 180 0 139.672 0 90 Z  M 10 90 C 9.99 79.31 12.13 68.72 16.29 58.87 C 20.32 49.38 26.14 40.74 33.44 33.44 C 40.74 26.14 49.38 20.32 58.88 16.29 C 68.73 12.13 79.31 9.99 90 10 C 100.69 9.99 111.27 12.13 121.12 16.29 C 130.62 20.32 139.26 26.14 146.56 33.44 C 153.86 40.74 159.68 49.38 163.71 58.88 C 167.87 68.72 170.01 79.3 170 89.99 C 170 89.99 170 90 170 90 L 170 90 L 170 90.01 C 170.01 100.7 167.87 111.28 163.71 121.12 C 159.68 130.62 153.86 139.26 146.56 146.56 C 139.26 153.86 130.62 159.68 121.12 163.71 C 111.28 167.87 100.7 170.01 90.01 170 C 90.01 170 90 170 90 170 L 90 170 L 89.99 170 C 79.3 170.01 68.72 167.87 58.88 163.71 C 49.38 159.68 40.74 153.86 33.44 146.56 C 26.14 139.26 20.32 130.62 16.29 121.12 C 12.13 111.27 9.99 100.69 10 90 Z " fill-rule="evenodd" fill="rgb(216,245,255)"/></g></svg>