<?xml version="1.0" encoding="UTF-8" standalone="no"?><!-- Generator: Gravit.io --><svg xmlns="http://www.w3.org/2000/svg" xmlns:xlink="http://www.w3.org/1999/xlink" style="isolation:isolate" viewBox="0 0 400 400" width="400pt" height="400pt"><defs><clipPath id="_clipPath_tcoMd14PydFEHPOTHxYVaeqYiKyP6aLC"><rect width="400" height="400"/></clipPath></defs><g clip-path="url(#_clipPath_tcoMd14PydFEHPOTHxYVaeqYiKyP6aLC)"><path d=" M 0 200 C 0 89.617 89.617 0 200 0 C 310.383 0 400 89.617 400 200 C 400 310.383 310.383 400 200 400 C 89.617 400 0 310.383 0 200 Z  M 160.979 232.351 C 149.395 232.351 139.824 221.838 139.824 208.905 C 139.824 195.972 149.062 185.367 160.942 185.367 C 172.822 185.367 182.318 195.972 182.115 208.905 C 181.912 221.838 172.785 232.351 160.979 232.351 L 160.979 232.351 Z  M 239.02 232.351 C 227.417 232.351 217.884 221.838 217.884 208.905 C 217.884 195.972 227.122 185.367 239.02 185.367 C 250.918 185.367 260.341 195.972 260.138 208.905 C 259.935 221.838 250.826 232.351 239.02 232.351 L 239.02 232.351 Z  M 281.533 125.894 C 266.099 118.828 249.807 113.816 233.071 110.984 C 230.781 115.078 228.709 119.29 226.863 123.603 C 209.036 120.917 190.907 120.917 173.081 123.603 C 171.234 119.291 169.162 115.079 166.873 110.984 C 150.126 113.84 133.823 118.864 118.374 125.931 C 87.705 171.307 79.39 215.557 83.548 259.178 L 83.548 259.178 C 101.508 272.448 121.612 282.54 142.984 289.016 C 147.796 282.543 152.054 275.677 155.713 268.489 C 148.764 265.894 142.056 262.691 135.667 258.919 C 137.349 257.699 138.993 256.443 140.582 255.224 C 178.217 272.923 221.782 272.923 259.417 255.224 C 261.025 256.536 262.669 257.792 264.332 258.919 C 257.931 262.697 251.211 265.906 244.249 268.508 C 247.903 275.692 252.162 282.553 256.979 289.016 C 278.369 282.566 298.487 272.479 316.452 259.196 L 316.452 259.196 C 321.329 208.61 308.119 164.767 281.533 125.894 L 281.533 125.894 Z " fill-rule="evenodd" fill="rgb(255,255,255)"/></g></svg>