<svg id="Layer_1" data-name="Layer 1" xmlns="http://www.w3.org/2000/svg" viewBox="0 0 1114.2 382.5"><defs><style>.cls-1{fill:#16181c;}.cls-2{fill:#27292f;}.cls-3{font-size:79.91px;fill:#b0bac5;font-family:Montserrat-SemiBold, Montserrat;font-weight:600;}.cls-4{letter-spacing:-0.02em;}.cls-5{letter-spacing:0em;}.cls-6,.cls-7{fill:#1bd96a;}.cls-6{fill-rule:evenodd;}.cls-8{fill:#ecf9fb;}</style></defs><rect class="cls-1" x="1.95" y="1.95" width="1110.31" height="378.61" rx="55.65"/><path class="cls-2" d="M1056.6,3.89a53.77,53.77,0,0,1,53.71,53.71V324.9a53.77,53.77,0,0,1-53.71,53.71H57.6A53.77,53.77,0,0,1,3.89,324.9V57.6A53.78,53.78,0,0,1,57.6,3.89h999m0-3.89H57.6A57.6,57.6,0,0,0,0,57.6V324.9a57.6,57.6,0,0,0,57.6,57.6h999a57.6,57.6,0,0,0,57.6-57.6V57.6A57.6,57.6,0,0,0,1056.6,0Z"/><text class="cls-3" transform="translate(351.14 147.2)">D<tspan class="cls-4" x="61.45" y="0">o</tspan><tspan class="cls-5" x="110.59" y="0">w</tspan><tspan x="184.66" y="0">nload on</tspan></text><path class="cls-6" d="M313.66,224.28a127,127,0,1,0-249-46.14H86.19a105.23,105.23,0,0,1,202.7-24.33L268,159.4a83.33,83.33,0,0,0-51.91-47.48l-3.85,21.72a61.42,61.42,0,0,1,5,113.24l5.71,21.31a83.28,83.28,0,0,0,50.71-87.72l20.81-5.55a103.84,103.84,0,0,1-1.9,41.68Z"/><path class="cls-7" d="M223.89,313.8A127,127,0,0,1,64.33,200.48H85.81A106.95,106.95,0,0,0,95.49,236l19.12-11.47a83.38,83.38,0,0,1,80.06-116.36l-3.88,21.71a61.57,61.57,0,0,0-59.21,77.36A46,46,0,0,0,133.5,213L158,198.35l-7.32-19.47,23.09-23.72,29.2-6.29,8.4,10.44-13.46,13.62-11.73,3.69-8.4,8.63,4.12,11.42s8.31,8.84,8.33,8.84l11.76-3.11,8.36-9.18,18.26-5.8,5.37,12.24-18.76,23.08-31.58,10-14.18-15.77-24.69,14.84a61.66,61.66,0,0,0,51.42,20.74l5.71,21.36a83.43,83.43,0,0,1-76-30.74l-19,11.42a105.28,105.28,0,0,0,178.31-17.49l21.12,7.68A126.67,126.67,0,0,1,223.89,313.8Z"/><path class="cls-8" d="M481,215.3q8.66,8.58,8.66,25.77V286h-18.4V243.37q0-10.27-4.61-15.49t-13.08-5.21q-9.21,0-14.82,6.09t-5.59,17.4V286h-18.3V243.34q0-10.28-4.6-15.5t-13.08-5.2q-9.4,0-14.91,6t-5.5,17.47v39.81H358.5V207.59H376v10a28.52,28.52,0,0,1,11-8.07,37.49,37.49,0,0,1,14.68-2.77,35.45,35.45,0,0,1,15.64,3.3,25.37,25.37,0,0,1,10.8,9.77,32.6,32.6,0,0,1,12.47-9.62,40.43,40.43,0,0,1,16.89-3.45Q472.32,206.73,481,215.3Z"/><path class="cls-8" d="M527.68,281.89a37.46,37.46,0,0,1-14.91-14.31,42.74,42.74,0,0,1,0-41.48,37.64,37.64,0,0,1,14.91-14.25,47.6,47.6,0,0,1,43,0,37.68,37.68,0,0,1,14.9,14.25,42.74,42.74,0,0,1,0,41.48,37.5,37.5,0,0,1-14.9,14.31A47.54,47.54,0,0,1,527.68,281.89Zm38.17-17.28q6.61-6.75,6.62-17.77t-6.62-17.77a24,24,0,0,0-33.4,0q-6.5,6.7-6.49,17.72t6.53,17.78a24,24,0,0,0,33.36,0Z"/><path class="cls-8" d="M685.39,177V286H667.77V275.85a28.46,28.46,0,0,1-11.24,8.37A38,38,0,0,1,641.77,287a41.34,41.34,0,0,1-20.33-5,35.8,35.8,0,0,1-14.17-14.18,45.53,45.53,0,0,1,0-42.07,36,36,0,0,1,14.17-14.1,41.4,41.4,0,0,1,20.33-4.94A37.17,37.17,0,0,1,656,209.38a28.69,28.69,0,0,1,11,7.92V177Zm-29.52,91.27a21.77,21.77,0,0,0,8.33-8.59,28.66,28.66,0,0,0,0-25.85,21.74,21.74,0,0,0-8.37-8.59,25,25,0,0,0-23.79,0,21.84,21.84,0,0,0-8.38,8.59,28.54,28.54,0,0,0,.05,25.85,21.74,21.74,0,0,0,8.37,8.59A25,25,0,0,0,655.87,268.31Z"/><path class="cls-8" d="M754.85,206.73v17.45a23.41,23.41,0,0,0-4.26-.44q-10.71,0-16.74,6.24t-6,18v38H709.48V207.59H727V219Q734.89,206.73,754.85,206.73Z"/><path class="cls-8" d="M771.34,191.51a10.66,10.66,0,0,1,0-15.72,11.76,11.76,0,0,1,8.36-3.15,12.13,12.13,0,0,1,8.34,3,9.7,9.7,0,0,1,3.38,7.56,11,11,0,0,1-3.31,8.15,11.41,11.41,0,0,1-8.44,3.31A11.77,11.77,0,0,1,771.34,191.51Zm-.89,16.13h18.37v78.41h-18.4Z"/><path class="cls-8" d="M881.15,215.37q9,8.67,9,25.7V286H871.75V243.37q0-10.27-4.85-15.49t-13.82-5.21q-10.16,0-16,6.09t-5.81,17.6V286H812.81V207.59h17.48v10.13a28.8,28.8,0,0,1,11.45-8.23,41.26,41.26,0,0,1,15.62-2.76Q872.2,206.73,881.15,215.37Z"/><path class="cls-8" d="M957.51,281.75a21.77,21.77,0,0,1-7.86,4,35,35,0,0,1-9.76,1.32q-12.92,0-20-6.75t-7-19.69V190.25h18.36v17.93h21v14.67h-21v37.31c0,3.82.94,6.74,2.86,8.74a10.51,10.51,0,0,0,8.06,3,16.19,16.19,0,0,0,10.28-3.23Z"/><path class="cls-8" d="M1040.91,215.37q9,8.67,9,25.7V286h-18.36V243.37q0-10.27-4.85-15.49t-13.82-5.21q-10.12,0-16,6.09T991,246.31V286H972.63V177H991v39.65a29.65,29.65,0,0,1,11.23-7.42,41.38,41.38,0,0,1,14.9-2.54Q1032,206.73,1040.91,215.37Z"/></svg>