<?xml version="1.0" encoding="UTF-8" standalone="no"?><!-- Generator: Gravit.io --><svg xmlns="http://www.w3.org/2000/svg" xmlns:xlink="http://www.w3.org/1999/xlink" style="isolation:isolate" viewBox="0 0 240 240" width="240pt" height="240pt"><defs><clipPath id="_clipPath_1LQSGsYAGgMIB8FrcCqPO6uJkr4gavZy"><rect width="240" height="240"/></clipPath></defs><g clip-path="url(#_clipPath_1LQSGsYAGgMIB8FrcCqPO6uJkr4gavZy)"><path d=" M 0 120 C 0 53.77 53.77 0 120 0 C 186.23 0 240 53.77 240 120 C 240 186.23 186.23 240 120 240 C 53.77 240 0 186.23 0 120 Z  M 98.04 183.3 C 151.26 183.3 180.36 139.2 180.36 100.98 C 180.36 99.72 180.36 98.46 180.3 97.26 C 185.94 93.18 190.86 88.08 194.76 82.26 C 189.6 84.54 184.02 86.1 178.14 86.82 C 184.14 83.22 188.7 77.58 190.86 70.8 C 185.28 74.1 179.1 76.5 172.5 77.82 C 167.22 72.18 159.72 68.7 151.38 68.7 C 135.42 68.7 122.46 81.66 122.46 97.62 C 122.46 99.9 122.7 102.12 123.24 104.22 C 99.18 103.02 77.88 91.5 63.6 73.98 C 61.14 78.24 59.7 83.22 59.7 88.5 C 59.7 98.52 64.8 107.4 72.6 112.56 C 67.86 112.44 63.42 111.12 59.52 108.96 C 59.52 109.08 59.52 109.2 59.52 109.32 C 59.52 123.36 69.48 135 82.74 137.7 C 80.34 138.36 77.76 138.72 75.12 138.72 C 73.26 138.72 71.46 138.54 69.66 138.18 C 73.32 149.7 84 158.04 96.66 158.28 C 86.76 166.02 74.28 170.64 60.72 170.64 C 58.38 170.64 56.1 170.52 53.82 170.22 C 66.48 178.5 81.72 183.3 98.04 183.3 Z " fill-rule="evenodd" fill="rgb(255,255,255)"/></g></svg>